# xmcd
# 
# Track frame offsets:
#     150
#     16626
#     35494
#     53816
#     70052
#     86254
#     103962
#     121190
#     137914
#     154025
# 
# Disc length: 2278
# 
# Revision: 0
# Processed by: cddbd v1.5.2PL0 Copyright (c) Steve Scherf et al.
# Submitted via: fre:ac v1.1beta1pre4
# 
DISCID=7808e40a
DTITLE=Elevtheria Arvanitaki - 9+1 Istories
DYEAR=2015
DGENRE=Pop-Folk
TTITLE0=Kratisou apo mena
TTITLE1=I Synithia
TTITLE2=Ti na sou grapso
TTITLE3=Posa perasame
TTITLE4=Katastrophi ke elpida
TTITLE5=Atoma
TTITLE6=Tora i tora
TTITLE7=Mi me fonaxeis
TTITLE8=Makria ap tin trikimia
TTITLE9=J.A.C.E.
EXTD=
EXTT0=
EXTT1=
EXTT2=
EXTT3=
EXTT4=
EXTT5=
EXTT6=
EXTT7=
EXTT8=
EXTT9=
PLAYORDER=
